HIERARCHY
ROOT Hips
{
	OFFSET 0.000000 0.000000 0.000000
	CHANNELS 6 Xposition Yposition Zposition Xrotation Yrotation Zrotation
	JOINT LeftUpLeg_virtual
	{
		OFFSET 0.000000 0.000000 0.000000
		CHANNELS 3 Xrotation Yrotation Zrotation
		JOINT LeftUpLeg
		{
			OFFSET 13.026900 -6.336304 -1.092800
			CHANNELS 3 Xrotation Yrotation Zrotation
			JOINT LeftLeg
			{
				OFFSET 0.524474 -46.096886 9.782700
				CHANNELS 3 Xrotation Yrotation Zrotation
				JOINT LeftFoot
				{
					OFFSET -0.524474 -53.427422 -12.948200
					CHANNELS 3 Xrotation Yrotation Zrotation
					JOINT LeftToeBase
					{
						OFFSET 0.192200 -14.009700 16.364100
						CHANNELS 3 Xrotation Yrotation Zrotation
						JOINT LeftToe_End
						{
							OFFSET -1.784700 -0.561700 9.474800
							CHANNELS 3 Xrotation Yrotation Zrotation
							End Site
							{
								OFFSET 0 0 0
							}
						}
					}
				}
			}
		}
	}
	JOINT RightUpLeg_virtual
	{
		OFFSET 0.000000 0.000000 0.000000
		CHANNELS 3 Xrotation Yrotation Zrotation
		JOINT RightUpLeg
		{
			OFFSET -12.883000 -6.336304 -1.092800
			CHANNELS 3 Xrotation Yrotation Zrotation
			JOINT RightLeg
			{
				OFFSET -0.524587 -46.096825 9.782800
				CHANNELS 3 Xrotation Yrotation Zrotation
				JOINT RightFoot
				{
					OFFSET 0.524587 -53.427383 -12.948300
					CHANNELS 3 Xrotation Yrotation Zrotation
					JOINT RightToeBase
					{
						OFFSET -0.192200 -14.009700 16.364100
						CHANNELS 3 Xrotation Yrotation Zrotation
						JOINT RightToe_End
						{
							OFFSET 1.784700 -0.561700 9.474800
							CHANNELS 3 Xrotation Yrotation Zrotation
							End Site
							{
								OFFSET 0 0 0
							}
						}
					}
				}
			}
		}
	}
	JOINT Spine_virtual
	{
		OFFSET 0.000000 0.000000 0.000000
		CHANNELS 3 Xrotation Yrotation Zrotation
		JOINT Spine
		{
			OFFSET 0.072000 7.257294 -0.789700
			CHANNELS 3 Xrotation Yrotation Zrotation
			JOINT Spine1
			{
				OFFSET 0.000000 12.508769 -0.658067
				CHANNELS 3 Xrotation Yrotation Zrotation
				JOINT Spine1_split
				{
					OFFSET 0.000000 12.508769 -0.658067
					CHANNELS 3 Xrotation Yrotation Zrotation
					JOINT Spine2
					{
						OFFSET 0.000000 12.508769 -0.658067
						CHANNELS 3 Xrotation Yrotation Zrotation
						JOINT Neck_virtual
						{
							OFFSET 0.000000 0.000000 0.000000
							CHANNELS 3 Xrotation Yrotation Zrotation
							JOINT Neck
							{
								OFFSET 0.000000 14.033295 7.520400
								CHANNELS 3 Xrotation Yrotation Zrotation
								JOINT Head
								{
									OFFSET 0.000000 8.198502 5.703100
									CHANNELS 3 Xrotation Yrotation Zrotation
									JOINT HeadTop_End
									{
										OFFSET 0.000000 17.760803 13.332701
										CHANNELS 3 Xrotation Yrotation Zrotation
										End Site
										{
											OFFSET 0 0 0
										}
									}
								}
							}
						}
						JOINT LeftShoulder_virtual
						{
							OFFSET 0.000000 0.000000 0.000000
							CHANNELS 3 Xrotation Yrotation Zrotation
							JOINT LeftShoulder
							{
								OFFSET 6.292450 5.785301 -0.669000
								CHANNELS 3 Xrotation Yrotation Zrotation
								JOINT LeftShoulder_split
								{
									OFFSET 6.292450 5.785301 -0.669000
									CHANNELS 3 Xrotation Yrotation Zrotation
									JOINT LeftArm
									{
										OFFSET 13.907140 -6.093903 1.965100
										CHANNELS 3 Xrotation Yrotation Zrotation
										JOINT LeftForeArm
										{
											OFFSET 34.140198 0.000000 0.000000
											CHANNELS 3 Xrotation Yrotation Zrotation
											JOINT LeftHand
											{
												OFFSET 40.960209 0.000000 0.000000
												CHANNELS 3 Xrotation Yrotation Zrotation
												End Site
												{
													OFFSET 0 0 0
												}
											}
										}
									}
								}
							}
						}
						JOINT RightShoulder_virtual
						{
							OFFSET 0.000000 0.000000 0.000000
							CHANNELS 3 Xrotation Yrotation Zrotation
							JOINT RightShoulder
							{
								OFFSET -6.292450 5.785301 -0.669000
								CHANNELS 3 Xrotation Yrotation Zrotation
								JOINT RightShoulder_split
								{
									OFFSET -6.292450 5.785301 -0.669000
									CHANNELS 3 Xrotation Yrotation Zrotation
									JOINT RightArm
									{
										OFFSET -13.907140 -6.093903 1.965100
										CHANNELS 3 Xrotation Yrotation Zrotation
										JOINT RightForeArm
										{
											OFFSET -34.140198 0.000000 0.000000
											CHANNELS 3 Xrotation Yrotation Zrotation
											JOINT RightHand
											{
												OFFSET -40.960209 0.000000 0.000000
												CHANNELS 3 Xrotation Yrotation Zrotation
												End Site
												{
													OFFSET 0 0 0
												}
											}
										}
									}
								}
							}
						}
					}
				}
			}
		}
	}
}
MOTION
Frames: 7
Frame Time: 0.03333333
1.672549 167.543304 20.951214 0.000000 0.000000 0.000000 4.492443 -39.703019 2.429508 -84.624166 -15.022668 18.449063 77.963864 0.436815 2.339344 8.174306 1.293634 -1.665829 -9.097400 1.055692 0.385011 0.000000 0.000000 0.000000 4.150306 -39.618301 1.634013 -115.242777 -31.051239 -5.607260 103.493820 10.643380 -10.484100 39.814778 3.914138 20.801327 6.376114 1.753739 -1.836000 0.000000 0.000000 0.000000 3.770090 -39.294030 0.773205 32.211999 -6.044927 -8.776395 13.548047 0.888589 -3.608900 0.306581 -0.385402 1.274754 0.000000 0.000000 0.000000 13.178919 1.215292 -2.709651 -7.256056 19.058417 -12.816401 -25.227903 11.066647 4.800461 0.000000 0.000000 0.000000 14.612280 1.316273 -2.992736 13.476497 -17.212990 4.174822 1.521882 -3.170822 -4.226273 -57.527733 -11.596614 -3.792968 48.104886 -17.028469 29.998730 0.000000 0.000000 0.000000 14.885253 1.333168 -3.037935 18.943130 26.125670 -8.104849 1.174393 6.228292 2.712448 -37.396078 1.655220 6.273721 -44.694767 45.308917 32.990524 0.000000 0.000000 0.000000 
1.686733 167.477707 20.955093 0.000000 0.000000 0.000000 4.509281 -39.919041 2.484467 -84.583458 -14.950135 18.532088 77.898109 0.398083 2.223984 8.051700 1.573536 -1.713917 -9.083705 1.053745 0.363780 0.000000 0.000000 0.000000 4.156923 -39.829763 1.685154 -114.810016 -31.110822 -5.477277 103.213768 10.724696 -10.537728 39.560271 3.854221 20.561808 6.367966 1.755288 -1.872443 0.000000 0.000000 0.000000 3.742510 -39.433271 0.818164 32.167797 -6.026429 -8.805961 13.497758 0.900042 -3.581183 0.253238 -0.377624 1.295155 0.000000 0.000000 0.000000 13.211187 1.219945 -2.702248 -7.201689 19.103390 -12.800780 -24.964027 11.218337 4.707841 0.000000 0.000000 0.000000 14.587870 1.330642 -2.954366 13.211058 -17.334434 3.428826 1.690042 -3.257109 -4.505012 -56.795844 -10.982180 -3.795096 47.916369 -16.738029 29.681752 0.000000 0.000000 0.000000 14.864308 1.327180 -3.027192 18.481290 26.476110 -7.113410 1.248851 6.278204 2.672328 -36.361134 1.706032 6.106248 -44.688002 45.073620 32.853265 0.000000 0.000000 0.000000 
1.691460 167.410065 20.953510 0.000000 0.000000 0.000000 4.577142 -40.076726 2.587486 -84.492896 -14.904741 18.538281 77.759935 0.324007 2.118357 7.841808 1.887701 -1.769917 -9.090709 1.038212 0.365874 0.000000 0.000000 0.000000 4.198595 -39.967077 1.766185 -114.391250 -31.135742 -5.354565 102.955833 10.776273 -10.581480 39.281661 3.816116 20.356904 6.368113 1.751655 -1.893420 0.000000 0.000000 0.000000 3.745046 -39.551392 0.891894 32.063022 -6.003037 -8.822447 13.437666 0.902790 -3.554236 0.228999 -0.385063 1.311333 0.000000 0.000000 0.000000 13.228895 1.219483 -2.699194 -7.119850 19.134304 -12.778542 -24.677936 11.364808 4.657681 0.000000 0.000000 0.000000 14.552094 1.340102 -2.920248 13.001168 -17.402564 2.787499 1.778656 -3.369420 -4.809613 -56.033243 -10.186660 -3.648769 47.645361 -16.506098 29.356006 0.000000 0.000000 0.000000 14.824714 1.319727 -3.016176 18.061503 26.753434 -6.255174 1.340417 6.320225 2.710662 -35.479199 1.465252 5.794981 -44.735950 44.780202 32.743367 0.000000 0.000000 0.000000 
1.687956 167.353546 20.926407 0.000000 0.000000 0.000000 4.691447 -40.156366 2.752080 -84.358389 -14.882356 18.461877 77.559783 0.229959 2.024144 7.592612 2.236633 -1.825898 -9.113511 1.012132 0.387157 0.000000 0.000000 0.000000 4.276472 -40.039102 1.901146 -114.008643 -31.128389 -5.288426 102.712733 10.804466 -10.610521 38.995835 3.822840 20.197254 6.363288 1.745298 -1.905979 0.000000 0.000000 0.000000 3.771004 -39.643907 1.016183 31.919707 -5.991773 -8.829724 13.377797 0.894702 -3.531657 0.249858 -0.380756 1.361556 0.000000 0.000000 0.000000 13.234134 1.212634 -2.702510 -7.036945 19.154545 -12.750345 -24.410842 11.507979 4.644122 0.000000 0.000000 0.000000 14.503567 1.341837 -2.895790 12.831009 -17.426164 2.195250 1.766648 -3.443675 -5.125677 -55.258225 -9.207918 -3.405863 47.382713 -16.379569 29.092310 0.000000 0.000000 0.000000 14.764463 1.308783 -3.006042 17.689644 26.969077 -5.509765 1.466569 6.361235 2.813015 -34.810530 1.106879 5.419159 -44.760333 44.396291 32.580938 0.000000 0.000000 0.000000 
1.666566 167.315186 20.893730 0.000000 0.000000 0.000000 4.819202 -40.176330 2.975003 -84.168387 -14.858045 18.338815 77.303815 0.139376 1.931577 7.334658 2.628972 -1.861917 -9.160142 0.982078 0.417626 0.000000 0.000000 0.000000 4.394619 -40.065500 2.102933 -113.681361 -31.092804 -5.323223 102.494502 10.817879 -10.618303 38.724225 3.885281 20.083159 6.333479 1.738042 -1.917264 0.000000 0.000000 0.000000 3.811160 -39.704822 1.187628 31.759461 -5.999490 -8.834763 13.312968 0.879711 -3.519779 0.298285 -0.366460 1.371400 0.000000 0.000000 0.000000 13.217064 1.200438 -2.712081 -6.970734 19.170977 -12.730969 -24.187413 11.667951 4.658013 0.000000 0.000000 0.000000 14.434806 1.335442 -2.881579 12.667619 -17.408928 1.571822 1.658461 -3.427250 -5.339578 -54.502820 -8.022042 -3.064940 47.254315 -16.420777 28.971794 0.000000 0.000000 0.000000 14.679950 1.293053 -3.000406 17.359097 27.125659 -4.835925 1.583032 6.375445 2.965516 -34.304379 0.766368 5.027783 -44.741192 43.953049 32.363267 0.000000 0.000000 0.000000 
1.646328 167.288803 20.850296 0.000000 0.000000 0.000000 4.954299 -40.167970 3.250764 -83.936864 -14.802570 18.195013 77.013163 0.062162 1.840384 7.091809 3.042480 -1.872592 -9.233185 0.953394 0.450182 0.000000 0.000000 0.000000 4.533464 -40.077877 2.360919 -113.429191 -31.034546 -5.474854 102.315742 10.829840 -10.611370 38.487050 4.006002 20.010620 6.266450 1.731121 -1.932250 0.000000 0.000000 0.000000 3.850862 -39.740349 1.400235 31.603395 -6.022691 -8.837522 13.240544 0.861540 -3.514532 0.334061 -0.365276 1.365253 0.000000 0.000000 0.000000 13.172114 1.184870 -2.723071 -6.936899 19.185701 -12.728497 -24.005093 11.834062 4.683582 0.000000 0.000000 0.000000 14.341150 1.325069 -2.875118 12.487692 -17.323586 0.860372 1.475960 -3.328044 -5.403142 -53.833499 -6.660978 -2.655515 47.285635 -16.581529 29.002517 0.000000 0.000000 0.000000 14.574657 1.274159 -2.996437 17.057279 27.219462 -4.179782 1.679445 6.325719 3.128743 -33.914949 0.458924 4.687450 -44.641071 43.459182 32.075029 0.000000 0.000000 0.000000 
1.616269 167.272278 20.817562 0.000000 0.000000 0.000000 5.066580 -40.161468 3.552215 -83.670234 -14.689097 18.083160 76.706603 -0.012668 1.754473 6.876155 3.423231 -1.878300 -9.309050 0.926361 0.479791 0.000000 0.000000 0.000000 4.673999 -40.095960 2.658858 -113.268715 -30.959485 -5.726380 102.182280 10.843357 -10.592108 38.294234 4.165212 19.967370 6.154090 1.725503 -1.949323 0.000000 0.000000 0.000000 3.874038 -39.750260 1.618057 31.459230 -6.051331 -8.839245 13.152773 0.843365 -3.506472 0.369299 -0.338666 1.315156 0.000000 0.000000 0.000000 13.094167 1.167567 -2.731233 -6.933118 19.195591 -12.750447 -23.843997 11.992792 4.700225 0.000000 0.000000 0.000000 14.228546 1.312008 -2.870415 12.279876 -17.134537 0.049992 1.223066 -3.151403 -5.374592 -53.280052 -5.133387 -2.217960 47.404327 -16.726157 29.101821 0.000000 0.000000 0.000000 14.446260 1.254100 -2.983054 16.763255 27.211849 -3.509762 1.698881 6.269488 3.254407 -33.514079 0.108548 4.446163 -44.508378 43.009991 31.809164 0.000000 0.000000 0.000000 
